<?xml version="1.0" encoding="UTF-8" standalone="no"?>
<!-- Created with Inkscape (http://www.inkscape.org/) -->

<svg
   xmlns:dc="http://purl.org/dc/elements/1.1/"
   xmlns:cc="http://creativecommons.org/ns#"
   xmlns:rdf="http://www.w3.org/1999/02/22-rdf-syntax-ns#"
   xmlns:svg="http://www.w3.org/2000/svg"
   xmlns="http://www.w3.org/2000/svg"
   xmlns:sodipodi="http://sodipodi.sourceforge.net/DTD/sodipodi-0.dtd"
   xmlns:inkscape="http://www.inkscape.org/namespaces/inkscape"
   width="1920"
   height="1080"
   viewBox="0 0 508.00001 285.74999"
   version="1.1"
   id="svg3707"
   inkscape:version="0.92.2 5c3e80d, 2017-08-06"
   sodipodi:docname="drawing.svg">
  <defs
     id="defs3701" />
  <sodipodi:namedview
     id="base"
     pagecolor="#ffffff"
     bordercolor="#666666"
     borderopacity="1.0"
     inkscape:pageopacity="0.0"
     inkscape:pageshadow="2"
     inkscape:zoom="0.49497475"
     inkscape:cx="1138.4351"
     inkscape:cy="435.98913"
     inkscape:document-units="px"
     inkscape:current-layer="layer1"
     showgrid="false"
     units="px"
     inkscape:pagecheckerboard="true"
     inkscape:window-width="1680"
     inkscape:window-height="1005"
     inkscape:window-x="0"
     inkscape:window-y="1"
     inkscape:window-maximized="1" />
  <metadata
     id="metadata3704">
    <rdf:RDF>
      <cc:Work
         rdf:about="">
        <dc:format>image/svg+xml</dc:format>
        <dc:type
           rdf:resource="http://purl.org/dc/dcmitype/StillImage" />
        <dc:title></dc:title>
      </cc:Work>
    </rdf:RDF>
  </metadata>
  <g
     inkscape:label="Layer 1"
     inkscape:groupmode="layer"
     id="layer1"
     transform="translate(0,-11.25001)">
    <path
       style="fill:#a4e8fc;stroke-width:0.53822571"
       d="m 170.08628,-30.079836 c 0.22664,0.36174 3.90158,0.46313 10.70295,0.29528 5.98659,-0.14772 9.90037,-0.0621 9.27391,0.20293 -0.63898,0.27033 2.80894,0.38897 8.40003,0.28903 5.21617,-0.0932 8.75229,-0.0227 7.85809,0.15688 -2.16119,0.43383 20.26457,1.17879 26.82593,0.89111 4.00816,-0.17573 4.48827,-0.13128 2.16776,0.2008 -2.02155,0.28926 -0.10334,0.382 5.96131,0.28821 5.7189,-0.0885 7.86761,0.007 5.96132,0.26566 -2.13998,0.29009 -1.16894,0.36111 3.44281,0.25183 4.18233,-0.0991 6.1677,0.0257 5.69035,0.35738 -0.47309,0.32882 1.76572,0.4191 6.31206,0.25455 3.87486,-0.14025 6.31358,-0.0882 5.41938,0.11555 -1.31693,0.30014 -0.89059,0.44161 2.24407,0.74469 2.12844,0.2058 4.6891,0.25003 5.69034,0.0983 1.31305,-0.19892 1.52104,-0.14711 0.74621,0.18587 -1.38734,0.59624 4.5346,1.32265 7.31283,0.89704 1.33238,-0.20412 1.57336,-0.15332 0.81624,0.17203 -1.38735,0.59624 4.5346,1.32266 7.31283,0.89705 1.33237,-0.20413 1.57335,-0.15333 0.81624,0.17206 -1.38735,0.59621 4.53459,1.32262 7.31282,0.89701 1.33238,-0.20412 1.57336,-0.15332 0.81625,0.17206 -1.38735,0.59621 4.53459,1.32263 7.31282,0.89702 1.33237,-0.20413 1.57335,-0.15333 0.81624,0.17206 -1.38734,0.59621 4.53461,1.32262 7.31283,0.89701 1.31515,-0.20148 1.56692,-0.15028 0.82728,0.16825 -1.40309,0.60418 4.17103,1.28834 7.43701,0.91279 1.60713,-0.18481 1.89023,-0.13595 0.94237,0.16266 -1.12894,0.35568 -0.83427,0.48885 1.76732,0.7987 1.71719,0.20452 4.15591,0.253 5.41937,0.10771 1.60715,-0.18481 1.89023,-0.13594 0.94238,0.16267 -1.12895,0.35568 -0.83428,0.48887 1.76732,0.7987 1.71719,0.20452 4.15591,0.25299 5.41938,0.10771 1.61764,-0.18603 1.89642,-0.13711 0.94236,0.16531 -1.11846,0.35454 -0.78644,0.49506 1.90307,0.80544 1.79185,0.2068 4.10863,0.24567 5.14841,0.0864 1.33237,-0.20413 1.57335,-0.15333 0.81624,0.17203 -1.38735,0.59624 4.53459,1.32263 7.31282,0.89705 1.33238,-0.20413 1.57335,-0.15333 0.81625,0.17203 -1.38734,0.59624 4.53459,1.32265 7.31282,0.89704 1.53328,-0.2349 1.6857,-0.18497 0.80663,0.26421 -0.82027,0.41916 -0.29305,0.49324 2.16775,0.30465 1.88158,-0.14423 2.79899,-0.0705 2.17737,0.17507 -1.41321,0.55819 4.63756,1.26952 7.31283,0.85968 1.53071,-0.2345 1.68422,-0.18452 0.80662,0.26266 -0.82515,0.42045 -0.37237,0.4912 1.89678,0.29644 2.18323,-0.18738 2.69068,-0.11544 1.89678,0.26884 -0.78693,0.38095 -0.19307,0.45641 2.16775,0.27546 1.88158,-0.14423 2.799,-0.0705 2.17737,0.1751 -1.4132,0.55819 4.63756,1.2695003 7.31283,0.85966 1.33237,-0.2041 1.57335,-0.15333 0.81623,0.1720503 -1.38734,0.59622 4.5346,1.32263 7.31283,0.89702 1.33238,-0.2041 1.57336,-0.1533 0.81624,0.17206 -1.38734,0.59621 4.5346,1.32263 7.31283,0.89702 1.3517,-0.20707 1.58159,-0.15661 0.80662,0.17706 -0.821,0.35348 -0.20042,0.56036 2.55883,0.85296 2.00349,0.2124301 3.87266,0.2460901 4.15373,0.0747 0.28106,-0.17134 0.60387,-0.0368 0.71735,0.2990101 0.13129,0.38849 1.91435,0.6327 4.90287,0.67149 2.58309,0.0336 4.28348,0.20402 3.77862,0.3788 -1.2978,0.44934 5.18515,1.10307 7.46918,0.75319 1.33237,-0.20413 1.57335,-0.15333 0.81624,0.17203 -1.38735,0.59624 4.5346,1.32265 7.31283,0.89704 1.3517,-0.20708 1.58159,-0.15663 0.80662,0.17706 -0.821,0.35349 -0.20042,0.56034 2.55882,0.85294 2.0035,0.21246 3.87267,0.24609 4.15374,0.0747 0.28106,-0.17132 0.59282,-0.0786 0.6928,0.20608 0.1,0.28467 1.88888,0.58685 3.97534,0.67149 2.08646,0.0847 3.92401,0.32496 4.08345,0.53398 0.15944,0.20905 1.98848,0.44958001 4.06453,0.53454001 2.07606,0.0849 3.9051,0.32551 4.06454,0.53453 0.15943,0.20905 1.98847,0.44958 4.06453,0.53454 2.07605,0.085 3.93167,0.36793 4.12359,0.62880999 0.19192,0.26085 2.43834,0.50139 4.99206,0.53454 2.55371,0.0331 4.23006,0.20322 3.7252,0.37803 -1.2978,0.44935 5.18515,1.10308 7.46918,0.75317 1.33237,-0.2041 1.57335,-0.1533 0.81624,0.17206 -1.38735,0.59621 4.5346,1.32262 7.31283,0.89701 1.33237,-0.2041 1.57335,-0.1533 0.81624,0.17206 -1.38735,0.59621 4.5346,1.32263 7.31282,0.89704 1.33238,-0.20412 1.57336,-0.15332 0.81624,0.17204 -1.38734,0.59623 4.5346,1.32262 7.31283,0.89704 1.33238,-0.20413 1.57335,-0.15333 0.81624,0.17203 -1.38734,0.59624 4.5346,1.32265 7.31282,0.89705 1.16421,-0.17836 1.51674,-0.12573 0.91762,0.13697 -0.60357,0.26466 8.30338,1.66447 23.46383,3.6875796 13.4402,1.79353 24.58229,3.40458 24.76022,3.58007 0.17792,0.1755 -0.21093,9.76604 -0.86412,21.31233 -0.65318,11.54629 -1.08187,22.9176 -0.95263,25.26957 0.1791,3.25946 0.13066,3.70433 -0.20369,1.87089 -0.29536,-1.61968 -0.38699,-0.0482 -0.28049,4.81085 0.087,3.96895 0.005,6.013575 -0.18304,4.54358 -0.453,-3.54833 -1.29006,10.834935 -0.95609,16.428295 0.17554,2.93987 0.12422,3.36437 -0.21108,1.74604 -0.29278,-1.41314 -0.38844,0.21816 -0.28209,4.81085 0.10755,4.64485 0.0177,6.151421 -0.27097,4.54358 -0.28774,-1.60265 -0.37667,-0.0863 -0.26645,4.543591 0.10837,4.5526 0.0135,6.21165 -0.2751,4.81085 -0.29003,-1.40773 -0.38139,0.14444 -0.26743,4.54358 0.11462,4.42501 0.0235,5.95959 -0.26985,4.54358 -0.29056,-1.40266 -0.38346,0.2522 -0.27004,4.81085 0.11664,4.68872 0.03,6.1666 -0.2664,4.54358 -0.29639,-1.62308 -0.38305,-0.14531 -0.26643,4.54358 0.11459,4.60752 0.0221,6.22855 -0.27452,4.81085 -0.29814,-1.42504 -0.38738,0.0904 -0.26756,4.54358 0.12138,4.51095 0.0326,5.98709 -0.27312,4.54358 -0.30697,-1.44917 -0.39714,0.0149 -0.27983,4.54358 0.11493,4.43696 0.0239,5.96341 -0.27097,4.54359 -0.29383,-1.41484 -0.3836,0.1222 -0.26536,4.54358 0.11688,4.37047 0.0214,6.03458 -0.27599,4.81085 -0.29848,-1.22818 -0.39031,0.3327 -0.26731,4.54358 0.12405,4.24699 0.0325,5.78229 -0.27097,4.54358 -0.30346,-1.2387 -0.39502,0.2966 -0.27097,4.54359 0.12405,4.24698 0.0325,5.78228 -0.27097,4.54358 -0.30346,-1.23871 -0.39502,0.29659 -0.27096,4.54358 0.12362,4.23255 0.032,5.77808 -0.26951,4.54358 -0.29932,-1.22576 -0.3929,0.43313 -0.27137,4.81085 0.12418,4.47335 0.0365,5.97505 -0.26526,4.54358 -0.30179,-1.43153 -0.38948,0.07 -0.26534,4.54359 0.12258,4.41725 0.0293,6.04768 -0.2753,4.81084 -0.30578,-1.2417 -0.39574,0.28631 -0.2675,4.54358 0.13006,4.31781 0.0406,5.80294 -0.27381,4.54359 -0.31528,-1.263 -0.40615,0.21329 -0.27967,4.54358 0.12406,4.24699 0.0325,5.78228 -0.27097,4.54358 -0.30345,-1.2387 -0.39502,0.29659 -0.27097,4.54358 0.12406,4.24699 0.0325,5.78229 -0.27096,4.54358 -0.30346,-1.2387 -0.39502,0.2966 -0.27097,4.54359 0.12405,4.24698 0.0325,5.78228 -0.27097,4.54358 -0.30346,-1.2387 -0.39502,0.29659 -0.27097,4.54358 0.12363,4.23255 0.032,5.77808 -0.2695,4.54358 -0.29845,-1.22219 -0.39059,0.44588 -0.26574,4.81085 0.12599,4.40464 0.0341,6.04415 -0.26959,4.81085 -0.30668,-1.24534 -0.39801,0.27384 -0.27315,4.54359 0.12765,4.36553 0.0425,5.73149 -0.26664,4.27631 -0.30754,-1.44774 -0.39615,0.0194 -0.27442,4.54358 0.12077,4.48877 0.0318,5.97999 -0.27097,4.54358 -0.30364,-1.4403 -0.39356,0.0427 -0.27551,4.54358 0.12075,4.60407 0.0371,5.93378 -0.269,4.27632 -0.30562,-1.65484 -0.39404,-0.23706 -0.28334,4.54358 0.10735,4.63637 0.0174,6.14848 -0.27022,4.54358 -0.3005,-1.67659 -0.38445,-0.54284 -0.27707,3.74177 0.0847,3.38096 -0.0251,5.42558 -0.24408,4.54359 -0.21898,-0.88199 -0.427,-1.38128 -0.46226,-1.10954 -0.10109,0.77892 -2.20863,-1.34067 -12.98147,-13.05575 C 410.362,117.40223 294.23145,183.85212 148.17706,149.65718 104.88724,139.39373 58.002506,117.76678 6.7913536,84.438909 -13.310787,71.356534 -36.402156,54.642314 -50.015326,43.320484 c -4.50912,-3.75016 -7.41675,-5.3895 -9.13668,-5.1514 -0.66029,0.0914 -0.87046,-0.0795 -0.60962,-0.49571 0.29236,-0.46664 -0.0874,-0.5405 -1.43111,-0.27833 -1.11569,0.21767 -1.55963,0.17234 -1.13822,-0.11623 0.45669,-0.31271 -0.82934,-0.78983 -3.793557,-1.40745 -35.016927,-7.29605 -71.769217,-17.54143 -87.030167,-24.26131 -19.39858,-8.5417596 -22.40883,-15.0037296 -9.8816,-21.2124197 9.30155,-4.6100403 27.42537,-8.6106803 54.23455,-11.9717303 6.69887,-0.83984 11.570097,-1.65158 10.824917,-1.8039 -0.74516,-0.15233 0.4742,-0.19424 2.7097,-0.0931 3.10444,0.14039 3.680519,0.0662 2.43871,-0.31416 -1.33884,-0.41008 -1.14756,-0.45202 1.083859,-0.23755 3.61572,0.34751 19.113631,-0.96686 16.529111,-1.40184 -1.04321,-0.17558 0.66388,-0.2994 3.79358,-0.27519 8.721947,0.0675 41.558027,-2.02459 37.935627,-2.417 -1.63935,-0.17759 0.79937,-0.25712 5.4194,-0.17671 5.46976,0.0952 7.36027,0.005 5.41936,-0.25903 -1.66948,-0.22699 1.05061,-0.2872 6.18352,-0.1369 6.090129,0.17833 9.0508392,0.0875 8.8263792,-0.27072 -0.22337,-0.35647 1.94995,-0.45214 6.41653,-0.28241 3.75249,0.14258 6.7544,0.0464 6.75445,-0.21643 1.1e-4,-0.27128 33.1163628,-0.55833 77.6326228,-0.67289 42.697844,-0.10991 79.644544,-0.26712 82.103764,-0.34936 2.65212,-0.0887 4.61173,0.0746 4.81648,0.40132 z"
       id="path3725"
       inkscape:connector-curvature="0"
       sodipodi:nodetypes="cccccccccccsccccccccccccccccccccccccccccccccccccccccccccccccccccsccccccccccccccccccccccsccccccccccccccccccscscccscccccscscccccscsccccccccccccsccccsccccscccccscccsscscccsccc" />
  </g>
</svg>
